{
    "accessors": {
        "accessor_21": {
            "bufferView": "bufferView_29",
            "byteOffset": 0,
            "byteStride": 2,
            "componentType": 5123,
            "count": 47592,
            "max": [
                23795.0
            ],
            "min": [
                0.0
            ],
            "type": "SCALAR"
        },
        "accessor_23": {
            "bufferView": "bufferView_30",
            "byteOffset": 0,
            "byteStride": 12,
            "componentType": 5126,
            "count": 47592,
            "max": [
                1.6394399404525757,
                4.736939907073975,
                1.5516399145126343
            ],
            "min": [
                -1.6394399404525757,
                -4.735049724578857,
                -1.5025500059127808
            ],
            "type": "VEC3"
        },
        "accessor_25": {
            "bufferView": "bufferView_30",
            "byteOffset": 571104,
            "byteStride": 12,
            "componentType": 5126,
            "count": 47592,
            "max": [
                1.0,
                0.9999960064888,
                1.0
            ],
            "min": [
                -1.0,
                -0.9999960064888,
                -1.0
            ],
            "type": "VEC3"
        },
        "accessor_27": {
            "bufferView": "bufferView_30",
            "byteOffset": 1142208,
            "byteStride": 8,
            "componentType": 5126,
            "count": 47592,
            "max": [
                1.612649917602539,
                1.4244929552078248
            ],
            "min": [
                0.0,
                -0.6140999794006348
            ],
            "type": "VEC2"
        }
    },
    "animations": {},
    "asset": {
        "generator": "collada2gltf@GITDIR-NOTFOUND",
        "premultipliedAlpha": true,
        "profile": {
            "api": "WebGL",
            "version": "1.0.2"
        },
        "version": "1.0.1"
    },
    "bufferViews": {
        "bufferView_29": {
            "buffer": "T90-blueV1",
            "byteLength": 95184,
            "byteOffset": 0,
            "target": 34963
        },
        "bufferView_30": {
            "buffer": "T90-blueV1",
            "byteLength": 1522944,
            "byteOffset": 95184,
            "target": 34962
        }
    },
    "buffers": {
        "T90-blueV1": {
            "byteLength": 1618128,
            "type": "arraybuffer",
            "uri": "data:application/octet-stream;base64,"
        }
    },
    "images": {
        "material_effect-image": {
            "name": "material_effect-image",
            "uri": "data:image/png;base64,"
        }
    },
    "materials": {
        "material_effect": {
            "name": "material",
            "technique": "technique0",
            "values": {
                "ambient": [
                    0.20000000298023225,
                    0.20000000298023225,
                    0.20000000298023225,
                    1.0
                ],
                "diffuse": "texture_material_effect-image",
                "emission": [
                    0.0,
                    0.0,
                    0.0,
                    1.0
                ],
                "shininess": 0.0,
                "specular": [
                    0.0,
                    0.0,
                    0.0,
                    1.0
                ]
            }
        }
    },
    "meshes": {
        "geometry": {
            "name": "geometry",
            "primitives": [
                {
                    "attributes": {
                        "NORMAL": "accessor_25",
                        "POSITION": "accessor_23",
                        "TEXCOORD_0": "accessor_27"
                    },
                    "indices": "accessor_21",
                    "material": "material_effect",
                    "mode": 4
                }
            ]
        }
    },
    "nodes": {
        "group": {
            "children": [
                "matrixTransform"
            ],
            "name": "group"
        },
        "matrixTransform": {
            "children": [],
            "matrix": [
                -1.0,
                -8.742279788975793e-8,
                1.5389499367240469e-14,
                0.0,
                8.742279788975793e-8,
                -1.0,
                1.4782200463692164e-10,
                0.0,
                1.5376599055453786e-14,
                1.4782200463692164e-10,
                1.0,
                0.0,
                1.641659963524944e-7,
                0.0009428319754078984,
                1.5025500059127808,
                1.0
            ],
            "meshes": [
                "geometry"
            ],
            "name": "matrixTransform"
        },
        "node_3": {
            "children": [
                "sceneRoot"
            ],
            "matrix": [
                1.0,
                0.0,
                0.0,
                0.0,
                0.0,
                0.0,
                -1.0,
                0.0,
                0.0,
                1.0,
                0.0,
                0.0,
                0.0,
                0.0,
                0.0,
                1.0
            ],
            "name": "Y_UP_Transform"
        },
        "sceneRoot": {
            "children": [
                "group"
            ],
            "name": "sceneRoot"
        }
    },
    "programs": {
        "program_0": {
            "attributes": [
                "a_normal",
                "a_position",
                "a_texcoord0"
            ],
            "fragmentShader": "T90-blueV10FS",
            "vertexShader": "T90-blueV10VS"
        }
    },
    "samplers": {
        "sampler_0": {
            "magFilter": 9729,
            "minFilter": 9987,
            "wrapS": 10497,
            "wrapT": 10497
        }
    },
    "scene": "defaultScene",
    "scenes": {
        "defaultScene": {
            "nodes": [
                "node_3"
            ]
        }
    },
    "shaders": {
        "T90-blueV10FS": {
            "type": 35632,
            "uri": "data:text/plain;base64,"
        },
        "T90-blueV10VS": {
            "type": 35633,
            "uri": "data:text/plain;base64,"
        }
    },
    "skins": {},
    "techniques": {
        "technique0": {
            "attributes": {
                "a_normal": "normal",
                "a_position": "position",
                "a_texcoord0": "texcoord0"
            },
            "parameters": {
                "ambient": {
                    "type": 35666
                },
                "diffuse": {
                    "type": 35678
                },
                "emission": {
                    "type": 35666
                },
                "modelViewMatrix": {
                    "semantic": "MODELVIEW",
                    "type": 35676
                },
                "normal": {
                    "semantic": "NORMAL",
                    "type": 35665
                },
                "normalMatrix": {
                    "semantic": "MODELVIEWINVERSETRANSPOSE",
                    "type": 35675
                },
                "position": {
                    "semantic": "POSITION",
                    "type": 35665
                },
                "projectionMatrix": {
                    "semantic": "PROJECTION",
                    "type": 35676
                },
                "shininess": {
                    "type": 5126
                },
                "specular": {
                    "type": 35666
                },
                "texcoord0": {
                    "semantic": "TEXCOORD_0",
                    "type": 35664
                }
            },
            "program": "program_0",
            "states": {
                "enable": [
                    2929,
                    2884
                ]
            },
            "uniforms": {
                "u_ambient": "ambient",
                "u_diffuse": "diffuse",
                "u_emission": "emission",
                "u_modelViewMatrix": "modelViewMatrix",
                "u_normalMatrix": "normalMatrix",
                "u_projectionMatrix": "projectionMatrix",
                "u_shininess": "shininess",
                "u_specular": "specular"
            }
        }
    },
    "textures": {
        "texture_material_effect-image": {
            "format": 6408,
            "internalFormat": 6408,
            "sampler": "sampler_0",
            "source": "material_effect-image",
            "target": 3553,
            "type": 5121
        }
    }
}